<?xml version="1.0" encoding="UTF-8"?>
<svg version="1.1" xmlns="http://www.w3.org/2000/svg" width="550" height="550">
<path d="M0 0 C2.64 0 5.28 0 8 0 C8 0.66 8 1.32 8 2 C8.51820313 2.21785156 9.03640625 2.43570312 9.5703125 2.66015625 C12.98678642 4.54416036 15.85965113 6.97430638 18.875 9.4375 C20.21335017 10.51586271 21.5518967 11.59398176 22.890625 12.671875 C24.92627214 14.31775843 26.95920907 15.96666935 28.98632812 17.62304688 C30.85969135 19.15236156 32.74163713 20.67052945 34.625 22.1875 C35.19202637 22.65663818 35.75905273 23.12577637 36.34326172 23.60913086 C39.46806383 26.11317632 41.92621816 27.86791492 46 28 C47.485 27.01 47.485 27.01 49 26 C50.98757238 25.29714832 52.9902465 24.6366595 55 24 C57.62735296 23.08947685 60.25227177 22.17361958 62.875 21.25 C63.60734863 20.993396 64.33969727 20.73679199 65.09423828 20.47241211 C68.93988133 19.11602227 72.76283196 17.71893773 76.5625 16.23828125 C77.64942139 15.81724121 77.64942139 15.81724121 78.75830078 15.38769531 C80.14528049 14.84698119 81.52923255 14.29842053 82.90966797 13.74121094 C87.66873319 11.88957773 87.66873319 11.88957773 91 13 C92.66495122 15.43088793 94.1915602 17.84356386 95.6875 20.375 C99.25456909 26.25750066 102.99324747 31.87496112 107.11328125 37.390625 C109.77786292 41.07580214 112.16779188 44.91616497 114.5546875 48.78515625 C115.94593789 51.08310275 115.94593789 51.08310275 118 53 C120.30313107 53.28147193 120.30313107 53.28147193 122.875 53.1875 C123.73867188 53.18105469 124.60234375 53.17460938 125.4921875 53.16796875 C127.91453881 53.08557209 127.91453881 53.08557209 129.85791016 52.50927734 C132.20174741 51.95203498 134.37505735 51.79059313 136.78125 51.68359375 C137.70083496 51.64161865 138.62041992 51.59964355 139.56787109 51.55639648 C140.53547363 51.51716064 141.50307617 51.4779248 142.5 51.4375 C143.48436035 51.3950415 144.4687207 51.35258301 145.48291016 51.30883789 C152.32900487 51.02842673 159.14844456 50.89847197 166 51 C168.80099604 57.65058831 171.09036258 64.29392795 173 71.25 C173.51287412 73.08597849 174.02589543 74.92191587 174.5390625 76.7578125 C174.7855957 77.64629883 175.03212891 78.53478516 175.28613281 79.45019531 C175.93302355 81.76077222 176.59710755 84.06508507 177.2734375 86.3671875 C177.81871094 88.22730469 177.81871094 88.22730469 178.375 90.125 C178.69210937 91.20007813 179.00921875 92.27515625 179.3359375 93.3828125 C180 96 180 96 180 99 C181.90845703 99.40412109 181.90845703 99.40412109 183.85546875 99.81640625 C189.07407766 100.9764372 194.18412149 102.43402214 199.3125 103.9375 C205.16481137 105.638974 211.0034896 107.28951259 216.9375 108.6875 C221.00214175 109.66440961 224.39057357 110.89450125 228 113 C228.13928313 121.20222873 227.91685517 129.36862513 227.5625 137.5625 C227.50364624 139.00810303 227.50364624 139.00810303 227.44360352 140.48291016 C227.40162842 141.39733887 227.35965332 142.31176758 227.31640625 143.25390625 C227.27974854 144.07189697 227.24309082 144.8898877 227.20532227 145.73266602 C227.00719162 147.92058428 226.54934817 149.87844604 226 152 C225.93311409 153.91561254 225.91468281 155.83335592 225.9375 157.75 C225.95103516 159.22726563 225.95103516 159.22726563 225.96484375 160.734375 C225.97644531 161.48203125 225.98804688 162.2296875 226 163 C226.67933594 163.23460937 227.35867188 163.46921875 228.05859375 163.7109375 C231.67451041 165.29560217 234.81823547 167.40431803 238.0625 169.625 C239.39970228 170.52870103 240.73694235 171.43234615 242.07421875 172.3359375 C242.73599121 172.78549805 243.39776367 173.23505859 244.07958984 173.69824219 C246.83391502 175.56527268 249.6041815 177.40753019 252.375 179.25 C257.25 182.5 262.125 185.75 267 189 C265.82427614 193.95030368 264.16248177 198.73648574 262.5625 203.5625 C262.24990234 204.52091797 261.93730469 205.47933594 261.61523438 206.46679688 C261.31037109 207.38654297 261.00550781 208.30628906 260.69140625 209.25390625 C260.41498291 210.09252197 260.13855957 210.9311377 259.85375977 211.79516602 C259 214 259 214 257 217 C256.53457501 218.62898747 256.07345497 220.25946067 255.64453125 221.8984375 C254.61139109 225.26710056 253.14007151 228.45248971 251.70703125 231.66796875 C250.8863946 234.37470953 251.09458929 235.36038192 252 238 C253.18392799 239.82929224 253.18392799 239.82929224 254.6953125 241.57421875 C255.24316406 242.23760254 255.79101562 242.90098633 256.35546875 243.58447266 C256.93941406 244.27847168 257.52335938 244.9724707 258.125 245.6875 C259.31579582 247.1257297 260.50590553 248.56452776 261.6953125 250.00390625 C262.26797852 250.69371582 262.84064453 251.38352539 263.43066406 252.09423828 C265.87812665 255.06637471 268.22403811 258.11295993 270.56640625 261.16796875 C271.97631308 262.96972979 273.44437382 264.70448097 274.9375 266.4375 C277 269 277 269 277 271 C277.66 271 278.32 271 279 271 C279 273.64 279 276.28 279 279 C278.34 279 277.68 279 277 279 C276.78214844 279.51820313 276.56429687 280.03640625 276.33984375 280.5703125 C274.45586621 283.98673825 272.02585972 286.85983531 269.5625 289.875 C268.4840486 291.21197636 267.40593181 292.54922269 266.328125 293.88671875 C264.67879006 295.92615137 263.02851878 297.96481482 261.37695312 300.00244141 C259.84909164 301.89243816 258.33005612 303.789225 256.8125 305.6875 C256.34336182 306.26290527 255.87422363 306.83831055 255.39086914 307.43115234 C252.18094111 311.29301105 252.18094111 311.29301105 251 316 C251.73152315 318.41501488 251.73152315 318.41501488 253 321 C255.85424756 327.47174794 258.17234708 334.06888282 260.46484375 340.7578125 C262.26359479 345.97896597 264.17605098 351.09585376 266.46875 356.125 C267.14351246 358.50651458 266.83893294 359.68358503 266 362 C263.56504505 363.74179259 261.20444509 365.25605314 258.625 366.75 C257.15299109 367.63346649 255.68294269 368.5202075 254.21484375 369.41015625 C253.49280762 369.84730957 252.77077148 370.28446289 252.02685547 370.73486328 C249.31622213 372.42680522 246.74975317 374.27975562 244.1875 376.1875 C229.65338595 387 229.65338595 387 226 387 C225.9727585 388.41655793 225.95349533 389.83327045 225.9375 391.25 C225.92009766 392.43335938 225.92009766 392.43335938 225.90234375 393.640625 C225.9115879 395.93399467 225.9115879 395.93399467 226.48632812 397.82348633 C227.07311914 400.30981803 227.21264364 402.63103354 227.31640625 405.18359375 C227.35838135 406.18841797 227.40035645 407.19324219 227.44360352 408.22851562 C227.50245728 409.81696289 227.50245728 409.81696289 227.5625 411.4375 C227.6049585 412.51322266 227.64741699 413.58894531 227.69116211 414.69726562 C227.97005266 422.13584324 228.13085098 429.556033 228 437 C222.03273044 439.98363478 216.23214231 441.81576287 209.74169922 443.34960938 C202.70354511 445.02481716 195.77210103 447.03312083 188.83105469 449.06982422 C187.97157227 449.32006348 187.11208984 449.57030273 186.2265625 449.828125 C185.45908691 450.0540332 184.69161133 450.27994141 183.90087891 450.51269531 C182 451 182 451 180 451 C179.72929687 452.27488281 179.45859375 453.54976563 179.1796875 454.86328125 C178.02981849 460.03365008 176.60589859 465.10361464 175.125 470.1875 C174.59100814 472.03381435 174.05715438 473.88016864 173.5234375 475.7265625 C173.26401367 476.62149414 173.00458984 477.51642578 172.73730469 478.43847656 C172.07638464 480.73462662 171.42839202 483.03369996 170.7890625 485.3359375 C170.44617188 486.56570313 170.10328125 487.79546875 169.75 489.0625 C169.45609375 490.12597656 169.1621875 491.18945312 168.859375 492.28515625 C168.09485458 494.70034577 167.15864888 496.75892914 166 499 C156.40364024 499.17625967 146.94279402 498.47491011 137.3828125 497.7109375 C130.23591324 497.16358198 123.16784851 496.86834564 116 497 C115.71334473 497.75595459 115.42668945 498.51190918 115.13134766 499.29077148 C113.64599109 502.84774209 111.54182744 505.89672562 109.375 509.0625 C108.47263947 510.39842617 107.57029594 511.73436382 106.66796875 513.0703125 C105.99386963 514.06272949 105.99386963 514.06272949 105.30615234 515.07519531 C100.40360224 522.29981307 95.57627055 529.56356036 91 537 C84.4278229 536.51148337 79.12641693 535.21281781 73.0625 532.6875 C72.27907227 532.37208252 71.49564453 532.05666504 70.68847656 531.73168945 C68.45489005 530.83080339 66.22712646 529.91671196 64 529 C62.08417685 528.22707258 60.16770517 527.45574608 58.25 526.6875 C57.12078125 526.23503906 57.12078125 526.23503906 55.96875 525.7734375 C53.337238 524.73962921 50.71193747 523.80125425 48 523 C47.07960938 522.71769531 46.15921875 522.43539062 45.2109375 522.14453125 C41.46464935 521.97590271 40.20095405 522.90824657 37.46020508 525.3659668 C36.9370874 525.86394775 36.41396973 526.36192871 35.875 526.875 C34.73302958 527.90259261 33.58844276 528.92728419 32.44140625 529.94921875 C31.86793457 530.46532715 31.29446289 530.98143555 30.70361328 531.51318359 C27.25843169 534.51994139 23.5415606 537.15465096 19.8515625 539.8515625 C17.02334351 541.98241242 14.370099 544.25270932 11.6875 546.5625 C8.57246269 549.05852349 7.17842368 549.96197528 3.1875 550.8125 C-0.85049924 549.78320608 -2.10380056 547.96745181 -5 545 C-7.1064775 543.27726065 -9.21796682 541.59350331 -11.375 539.9375 C-15.33484263 536.88533178 -19.25488187 533.80942116 -23.07421875 530.58203125 C-23.7408252 530.02588135 -24.40743164 529.46973145 -25.09423828 528.89672852 C-26.38520152 527.8166557 -27.66657544 526.72499409 -28.93701172 525.62084961 C-32.26412621 522.78278072 -32.26412621 522.78278072 -36.421875 521.99609375 C-37.27265625 522.32738281 -38.1234375 522.65867187 -39 523 C-40.28465071 523.42470929 -41.56986257 523.84772302 -42.85546875 524.26953125 C-44.30091461 524.77980609 -45.74487369 525.29430748 -47.1875 525.8125 C-48.32578247 526.21734619 -48.32578247 526.21734619 -49.48706055 526.63037109 C-53.46156108 528.05380674 -57.4040725 529.52725521 -61.3125 531.125 C-64.94564972 532.60563294 -68.60578609 533.96344638 -72.3125 535.25 C-73.27800781 535.58515625 -74.24351562 535.9203125 -75.23828125 536.265625 C-78.08167113 537.02171736 -80.090816 537.48971264 -83 537 C-84.66796875 535.12109375 -84.66796875 535.12109375 -86.1875 532.4375 C-88.96771701 527.73947603 -91.83188133 523.15463249 -94.875 518.625 C-95.50462646 517.68297729 -95.50462646 517.68297729 -96.14697266 516.72192383 C-102.49803664 506.37662938 -102.49803664 506.37662938 -110 497 C-112.40787051 497.06942746 -114.78592545 497.20413803 -117.1875 497.375 C-126.16126454 497.94970722 -135.13846553 498.27597397 -144.125 498.5625 C-144.8107309 498.58455505 -145.49646179 498.60661011 -146.20297241 498.6293335 C-150.13523319 498.75557527 -154.06757364 498.87903219 -158 499 C-160.20383533 493.77926388 -162.20779989 488.68079917 -163.47216797 483.15283203 C-164.85952032 477.49433388 -166.7678593 471.95413196 -168.52148438 466.40039062 C-170.11657502 461.25613864 -171.45094596 456.36267849 -172 451 C-173.05316406 450.76925781 -174.10632813 450.53851563 -175.19140625 450.30078125 C-183.88942234 448.34961564 -192.268644 446.01894573 -200.6875 443.09375 C-204.12447074 441.95890117 -207.51459069 441.1681358 -211.05859375 440.46875 C-214.22887751 439.70328913 -217.05184247 438.37998863 -220 437 C-220.15295719 428.45139276 -219.92210954 419.91800308 -219.625 411.375 C-219.59414307 410.32707275 -219.56328613 409.27914551 -219.53149414 408.19946289 C-219.27173484 401.31233123 -218.42152196 394.74345966 -217 388 C-217.77327637 387.70504639 -218.54655273 387.41009277 -219.34326172 387.10620117 C-222.33230566 385.86163601 -224.54878588 384.26965371 -227.125 382.3125 C-233.16484442 377.82898399 -239.43452198 373.82160912 -245.83056641 369.86865234 C-247.76669197 368.66972694 -249.69596108 367.46028585 -251.625 366.25 C-252.24157471 365.87302979 -252.85814941 365.49605957 -253.4934082 365.10766602 C-257.88686781 362.33939657 -257.88686781 362.33939657 -259 359 C-258.3984375 356.65014648 -258.3984375 356.65014648 -257.375 353.87109375 C-257.00101074 352.84395264 -256.62702148 351.81681152 -256.24169922 350.75854492 C-255.83193848 349.6626001 -255.42217773 348.56665527 -255 347.4375 C-254.59152832 346.32028564 -254.18305664 345.20307129 -253.76220703 344.05200195 C-251.8438528 338.83495959 -249.87666337 333.64239405 -247.8046875 328.484375 C-247.47726563 327.66654541 -247.14984375 326.84871582 -246.8125 326.00610352 C-246.20119825 324.49424603 -245.57927438 322.98662718 -244.9453125 321.48413086 C-243.46856121 317.85538027 -242.64295668 315.70753109 -244 312 C-245.1346226 310.23645811 -245.1346226 310.23645811 -246.58984375 308.56640625 C-247.12230713 307.92348633 -247.65477051 307.28056641 -248.20336914 306.61816406 C-248.77563232 305.93979492 -249.34789551 305.26142578 -249.9375 304.5625 C-251.12388332 303.1327434 -252.30876008 301.70173545 -253.4921875 300.26953125 C-254.08354492 299.55490723 -254.67490234 298.8402832 -255.28417969 298.10400391 C-258.59399976 294.04537707 -261.7302695 289.85589821 -264.87890625 285.671875 C-266.90552587 282.98777791 -266.90552587 282.98777791 -269.2421875 280.88671875 C-271.51664225 278.44547066 -271.51867314 276.35925957 -271.62890625 273.09765625 C-270.85755041 270.5248731 -269.44656792 269.30638827 -267.51342773 267.5065918 C-264.4204815 264.42761596 -261.89287168 260.83878279 -259.25 257.375 C-252.23059199 248.20673696 -252.23059199 248.20673696 -249.05078125 244.55078125 C-247.81908203 243.13345703 -247.81908203 243.13345703 -246.5625 241.6875 C-245.48162109 240.48673828 -245.48162109 240.48673828 -244.37890625 239.26171875 C-242.79199871 237.12152378 -242.79199871 237.12152378 -243.06640625 234.75390625 C-244.38363396 230.86836009 -245.84488149 227.05632787 -247.375 223.25 C-249.78630877 217.22172807 -251.99529997 211.17541365 -254 205 C-254.46098915 203.61286506 -254.92318995 202.22613209 -255.38671875 200.83984375 C-256.59114583 197.2265625 -257.79557292 193.61328125 -259 190 C-255.88881684 186.62387424 -252.57382728 184.30451486 -248.6875 181.875 C-247.43938921 181.08706887 -246.19201938 180.29796309 -244.9453125 179.5078125 C-244.29981445 179.09950195 -243.65431641 178.69119141 -242.98925781 178.27050781 C-239.65225136 176.13921405 -236.35618352 173.94744809 -233.0625 171.75 C-232.46074951 171.35022949 -231.85899902 170.95045898 -231.23901367 170.53857422 C-228.16930905 168.4892759 -225.15822689 166.38856976 -222.18359375 164.203125 C-219 162 -219 162 -217 162 C-217.14095064 160.3745692 -217.28792087 158.74965949 -217.4375 157.125 C-217.51871094 156.22007812 -217.59992188 155.31515625 -217.68359375 154.3828125 C-217.86989285 151.98889139 -217.86989285 151.98889139 -219 150 C-219.15317353 148.34095397 -219.2495101 146.67647722 -219.31640625 145.01171875 C-219.35838135 144.00044922 -219.40035645 142.98917969 -219.44360352 141.94726562 C-219.48283936 140.87154297 -219.5220752 139.79582031 -219.5625 138.6875 C-219.6049585 137.60275391 -219.64741699 136.51800781 -219.69116211 135.40039062 C-219.96892165 127.92938542 -220.13141936 120.47630122 -220 113 C-218.50292061 112.36803616 -217.00213297 111.74485607 -215.5 111.125 C-214.6646875 110.77695313 -213.829375 110.42890625 -212.96875 110.0703125 C-210.04267708 109.01538621 -207.11028536 108.25248707 -204.08789062 107.52685547 C-200.67857776 106.66655412 -197.34555771 105.57815824 -194 104.5 C-186.75456572 102.16504559 -179.54773276 100.13215991 -172 99 C-171.72800781 97.72125 -171.45601563 96.4425 -171.17578125 95.125 C-170.04078463 90.0229959 -168.64618219 85.01760314 -167.1875 80 C-166.92686768 79.09733398 -166.66623535 78.19466797 -166.39770508 77.26464844 C-165.8628453 75.4149724 -165.32663645 73.56568592 -164.7890625 71.71679688 C-164.03177351 69.10939841 -163.28092332 66.50022153 -162.53125 63.890625 C-162.08369881 62.34364422 -161.635801 60.79676366 -161.1875 59.25 C-160.98084717 58.52941406 -160.77419434 57.80882812 -160.5612793 57.06640625 C-159.11484443 52.11484443 -159.11484443 52.11484443 -158 51 C-150.24379278 50.46181419 -142.31964147 51.11582427 -134.5625 51.4375 C-133.55807861 51.47375488 -132.55365723 51.51000977 -131.51879883 51.54736328 C-127.26272968 51.71917812 -123.09984934 51.9007372 -118.90625 52.67578125 C-115.67780648 53.23019854 -113.21793262 53.61733753 -110 53 C-106.39171441 49.88149888 -104.3230885 46.12160864 -102 42 C-100.72215706 40.07408948 -99.43032853 38.15738861 -98.125 36.25 C-96.74984765 34.16676722 -95.37486145 32.08342477 -94 30 C-93.10381008 28.65822218 -92.20662599 27.31710798 -91.30859375 25.9765625 C-90.62482666 24.9551416 -90.62482666 24.9551416 -89.92724609 23.91308594 C-89.03107792 22.57476538 -88.13428768 21.23686112 -87.23681641 19.89941406 C-84.97171689 16.53694556 -84.97171689 16.53694556 -83 13 C-76.30581459 13.33470927 -71.31361195 14.95176863 -65.20703125 17.6640625 C-60.80568456 19.49751021 -56.29612706 20.80049714 -51.71484375 22.10546875 C-49 23 -49 23 -46 25 C-44.53993783 25.6103759 -43.0581604 26.17045045 -41.5625 26.6875 C-40.41974609 27.09548828 -40.41974609 27.09548828 -39.25390625 27.51171875 C-36.63442509 28.07919734 -35.4757058 28.01322322 -33 27 C-30.56794066 25.26266732 -30.56794066 25.26266732 -28.0625 23.0625 C-23.87848488 19.54971725 -19.6510126 16.13256462 -15.3125 12.8125 C-14.76505127 12.39234619 -14.21760254 11.97219238 -13.65356445 11.53930664 C-9.93595286 8.6943159 -6.18479496 5.89825518 -2.390625 3.15625 C-0.84823636 2.03133276 -0.84823636 2.03133276 0 0 Z " fill="#6ab5b8" transform="translate(271,0)"/>
</svg>
